<svg xmlns="http://www.w3.org/2000/svg" width="20" height="20" viewBox="0 0 14 14"><path d="M1225.267,159.467h-.933v1.867h.933Zm-1.867,0h-.933v1.867h.933Zm1.867-2.8h-.933v1.867h.933Zm1.867,2.8h-.933v1.867h.933Zm-3.733,2.8h-.933v1.867h.933ZM1226.2,152h-.933v1.867h.933Zm-7.467,0h-.933v1.867h.933Zm8.4,4.667h-.933v1.867h.933Zm-3.733,0h-.933v1.867h.933Zm-3.733,5.6h-.933v1.867h.933Zm-1.867-2.8h-.933v1.867h.933Zm1.867,0h-.933v1.867h.933Zm7.467-6.533V154.8h-2.8v-1.867h-4.667V154.8h-2.8v-1.867H1215V166h14V152.933Zm.933,12.133h-12.133v-9.333h12.133Zm-10.267-2.8h-.933v1.867h.933Zm3.733-5.6h-.933v1.867h.933Zm0,5.6h-.933v1.867h.933Zm-1.866-5.6h-.933v1.867h.933Zm1.866,2.8h-.933v1.867h.933Zm3.734,2.8h-.933v1.867h.933Z" transform="translate(-1215 -152)" fill="#6f7287"/></svg>