<svg width="30" height="30" viewBox="0 0 36 36" version="1.1" xmlns="http://www.w3.org/2000/svg"><g stroke="none" stroke-width="1" fill="none" fill-rule="evenodd"><g fill-rule="nonzero" fill="#25D366"><path d="M18,0 C27.945,0 36,8.055 36,18 C36,27.945 27.945,36 18,36 C8.055,36 0,27.945 0,18 C0,8.055 8.055,0 18,0 Z M18,28.5075 C23.805,28.5075 28.5075,23.805 28.5075,18 C28.5075,12.195 23.805,7.4925 18,7.4925 C12.195,7.4925 7.4925,12.195 7.4925,18 C7.4925,20.07 8.1,21.9825 9.135,23.6025 L7.4925,28.5075 L12.3975,26.865 C14.0175,27.9 15.93,28.5075 18,28.5075 Z M23.4,20.34 C23.6925,20.4975 23.895,20.565 23.9625,20.7 C24.03,20.835 24.03,21.42 23.7825,22.1175 C23.535,22.815 22.5675,23.4 21.8025,23.5575 C21.2625,23.67 20.565,23.76 18.2475,22.7925 C15.2775,21.555 13.3425,18.495 13.2075,18.2925 C13.05,18.09 11.9925,16.695 11.9925,15.2325 C11.9925,13.7475 12.735,13.05 13.0275,12.735 C13.275,12.4875 13.68,12.375 14.085,12.375 C14.1975,12.375 14.31,12.375 14.4225,12.375 C14.715,12.3975 14.8725,12.42 15.0525,12.8925 C15.3,13.4775 15.9075,14.94 15.975,15.0975 C16.0425,15.255 16.11,15.4575 16.02,15.66 C15.9075,15.8625 15.84,15.9525 15.6825,16.11 C15.5475,16.29 15.4125,16.425 15.255,16.605 C15.12,16.7625 14.9625,16.9425 15.1425,17.235 C15.3,17.5275 15.9075,18.5175 16.785,19.305 C17.91,20.3175 18.8325,20.6325 19.1475,20.7675 C19.395,20.88 19.6875,20.8575 19.8675,20.655 C20.0925,20.4075 20.3625,20.0025 20.655,19.5975 C20.8575,19.305 21.1275,19.2825 21.375,19.3725 C21.645,19.485 23.1075,20.205 23.4,20.34 Z"></path></g></g></svg>